# xmcd CD database file
#
# Track frame offsets:
#	150
#	37650
#	41003
#	45593
#	59710
#	86098
#	89928
#	110000
#	114963
#	167025
#	172343
#	207225
#	231258
#
# Disc length: 3820 seconds
#
# Revision: 0
# Processed by: cddbd v1.4PL0 Copyright (c) Steve Scherf et al.
# Submitted via: CDex 1.50Beta7
#
DISCID=b90eea0d
DTITLE=Creativ Art Brass and Rhytm - Chopin and Vukán
DYEAR=1994
DGENRE=Jazz
TTITLE0=Des major No. 15.
TTITLE1=Cis minor No. 10.
TTITLE2=E major No. 9.
TTITLE3=A major No. 7. piano interlude
TTITLE4=Es minor No. 14.
TTITLE5=G minor No. 22.
TTITLE6=C minor No. 20.
TTITLE7=F minor No. 18. drums interlude
TTITLE8=B minor No. 6.
TTITLE9=B major No. 11. bass interlude
TTITLE10=E minor No. 4.
TTITLE11=G major No. 3.
TTITLE12=Requiem For My Father
EXTD=YEAR: 1994
EXTT0=
EXTT1=
EXTT2=
EXTT3=
EXTT4=
EXTT5=
EXTT6=
EXTT7=
EXTT8=
EXTT9=
EXTT10=
EXTT11=
EXTT12=
PLAYORDER=
